<?xml version="1.0" encoding="utf-8"?>
<!-- Generator: Adobe Illustrator 26.5.0, SVG Export Plug-In . SVG Version: 6.00 Build 0)  -->
<svg version="1.1" id="_x5F_Aligned_right" xmlns="http://www.w3.org/2000/svg" xmlns:xlink="http://www.w3.org/1999/xlink" x="0px"
	 y="0px" width="24px" height="24px" viewBox="0 0 24 24" style="enable-background:new 0 0 24 24;" xml:space="preserve">
<path d="M20.057,5h-16c-0.552,0-1-0.448-1-1s0.448-1,1-1h16c0.553,0,1,0.448,1,1S20.61,5,20.057,5z"/>
<path d="M20.057,10.333H9.045c-0.552,0-1-0.448-1-1s0.448-1,1-1h11.012c0.553,0,1,0.448,1,1S20.61,10.333,20.057,10.333z"/>
<path d="M20.057,15.667h-16c-0.552,0-1-0.448-1-1s0.448-1,1-1h16c0.553,0,1,0.448,1,1S20.61,15.667,20.057,15.667z"/>
<path d="M20.057,21H9c-0.552,0-1-0.448-1-1s0.448-1,1-1h11.057c0.553,0,1,0.448,1,1S20.61,21,20.057,21z"/>
</svg>
