<?xml version="1.0" encoding="utf-8"?>
<!-- Generator: Adobe Illustrator 26.5.0, SVG Export Plug-In . SVG Version: 6.00 Build 0)  -->
<svg version="1.1" id="_x5F_Aligned_left" xmlns="http://www.w3.org/2000/svg" xmlns:xlink="http://www.w3.org/1999/xlink" x="0px"
	 y="0px" width="24px" height="24px" viewBox="0 0 24 24" style="enable-background:new 0 0 24 24;" xml:space="preserve">
<g>
	<path d="M20,5H4C3.448,5,3,4.552,3,4s0.448-1,1-1h16c0.553,0,1,0.448,1,1S20.553,5,20,5z"/>
</g>
<g>
	<path d="M15,10.333H3.988c-0.552,0-1-0.448-1-1s0.448-1,1-1H15c0.553,0,1,0.448,1,1S15.553,10.333,15,10.333z"/>
</g>
<g>
	<path d="M19.962,15.667h-16c-0.552,0-1-0.448-1-1s0.448-1,1-1h16c0.553,0,1,0.448,1,1S20.515,15.667,19.962,15.667z"/>
</g>
<g>
	<path d="M15,21H3.943c-0.552,0-1-0.448-1-1s0.448-1,1-1H15c0.553,0,1,0.448,1,1S15.553,21,15,21z"/>
</g>
</svg>
