<?xml version="1.0" encoding="utf-8"?>
<!-- Generator: Adobe Illustrator 26.5.0, SVG Export Plug-In . SVG Version: 6.00 Build 0)  -->
<svg version="1.1" id="_x5F_Aligned_center" xmlns="http://www.w3.org/2000/svg" xmlns:xlink="http://www.w3.org/1999/xlink"
	 x="0px" y="0px" width="24px" height="24px" viewBox="0 0 24 24" style="enable-background:new 0 0 24 24;" xml:space="preserve">
<path d="M20,5H4C3.448,5,3,4.552,3,4s0.448-1,1-1h16c0.553,0,1,0.448,1,1S20.553,5,20,5z"/>
<path d="M17.506,10.333H6.494c-0.552,0-1-0.448-1-1s0.448-1,1-1h11.012c0.553,0,1,0.448,1,1S18.059,10.333,17.506,10.333z"/>
<path d="M20,15.667H4c-0.552,0-1-0.448-1-1s0.448-1,1-1h16c0.553,0,1,0.448,1,1S20.553,15.667,20,15.667z"/>
<path d="M17.529,21H6.471c-0.552,0-1-0.448-1-1s0.448-1,1-1h11.057c0.553,0,1,0.448,1,1S18.081,21,17.529,21z"/>
</svg>
