<?xml version="1.0" encoding="utf-8"?>
<!-- Generator: Adobe Illustrator 26.5.0, SVG Export Plug-In . SVG Version: 6.00 Build 0)  -->
<svg version="1.1" id="_x5F_Letter_bold" xmlns="http://www.w3.org/2000/svg" xmlns:xlink="http://www.w3.org/1999/xlink" x="0px"
	 y="0px" width="24px" height="24px" viewBox="0 0 24 24" style="enable-background:new 0 0 24 24;" xml:space="preserve">
<path d="M18.053,12.843c-0.476-0.518-1.052-0.943-1.713-1.263c0.407-0.294,0.763-0.654,1.062-1.072
	c0.503-0.705,0.758-1.588,0.758-2.627c0-1.49-0.537-2.695-1.595-3.58c-1.035-0.866-2.497-1.306-4.344-1.306H6.438
	c-0.436,0-0.809,0.158-1.109,0.469C5.035,3.769,4.885,4.142,4.885,4.572v14.874c0,0.433,0.151,0.804,0.451,1.105
	c0.299,0.297,0.67,0.448,1.102,0.448h5.929c2.27,0,3.975-0.464,5.068-1.38c1.114-0.935,1.68-2.238,1.68-3.874
	C19.115,14.587,18.758,13.61,18.053,12.843z M14.406,9.764c-0.503,0.418-1.436,0.631-2.774,0.631H8.015V5.979h4.034
	c0.991,0,1.77,0.202,2.318,0.6c0.511,0.371,0.759,0.853,0.759,1.472C15.126,8.8,14.891,9.36,14.406,9.764z M16.058,15.648
	c0,0.752-0.265,1.314-0.81,1.72c-0.579,0.428-1.622,0.645-3.101,0.645H8.015v-4.707h4.156
	C14.787,13.307,16.058,14.073,16.058,15.648z"/>
</svg>
