<?xml version="1.0" encoding="utf-8"?>
<!-- Generator: Adobe Illustrator 26.5.0, SVG Export Plug-In . SVG Version: 6.00 Build 0)  -->
<svg version="1.1" id="Image" xmlns="http://www.w3.org/2000/svg" xmlns:xlink="http://www.w3.org/1999/xlink" x="0px" y="0px"
	 width="24px" height="24px" viewBox="0 0 24 24" style="enable-background:new 0 0 24 24;" xml:space="preserve">
<path d="M15,11c1.105,0,2-0.895,2-2c0-1.105-0.895-2-2-2s-2,0.895-2,2C13,10.105,13.895,11,15,11z M15,8c0.551,0,1,0.449,1,1
	s-0.449,1-1,1s-1-0.449-1-1S14.449,8,15,8z"/>
<path d="M8,11"/>
<path d="M20,3H4C3.448,3,3,3.448,3,4v4v12c0,0.552,0.448,1,1,1h16c0.552,0,1-0.448,1-1V4C21,3.448,20.552,3,20,3z M19.4,4.6v10.267
	l-1.76-2.347c-0.301-0.403-0.979-0.403-1.279,0l-2.345,3.125l-4.365-6.11c-0.3-0.421-1.002-0.421-1.302,0L4.6,14.784V4.6H19.4z
	 M4.6,19.4v-1.891c0.015-0.018,0.037-0.025,0.051-0.044L9,11.376l4.349,6.088c0.148,0.208,0.387,0.332,0.642,0.335
	c0.004,0,0.007,0,0.01,0c0.252,0,0.489-0.118,0.64-0.319L17,14.333l2.36,3.147c0.011,0.015,0.028,0.022,0.04,0.035V19.4H4.6z"/>
</svg>
