<?xml version="1.0" encoding="utf-8"?>
<!-- Generator: Adobe Illustrator 26.5.0, SVG Export Plug-In . SVG Version: 6.00 Build 0)  -->
<svg version="1.1" id="_x5F_Indent_less" xmlns="http://www.w3.org/2000/svg" xmlns:xlink="http://www.w3.org/1999/xlink" x="0px"
	 y="0px" width="24px" height="24px" viewBox="0 0 24 24" style="enable-background:new 0 0 24 24;" xml:space="preserve">
<path d="M20,5H4C3.448,5,3,4.552,3,4s0.448-1,1-1h16c0.553,0,1,0.448,1,1S20.553,5,20,5z"/>
<path d="M20,21H4c-0.552,0-1-0.448-1-1s0.448-1,1-1h16c0.553,0,1,0.448,1,1S20.553,21,20,21z"/>
<path d="M20.083,15.667h-9.167c-0.506,0-0.917-0.448-0.917-1s0.41-1,0.917-1h9.167c0.507,0,0.917,0.448,0.917,1
	S20.59,15.667,20.083,15.667z"/>
<path d="M20.083,10.333h-9.167c-0.506,0-0.917-0.448-0.917-1s0.41-1,0.917-1h9.167c0.507,0,0.917,0.448,0.917,1
	S20.59,10.333,20.083,10.333z"/>
<path d="M6.113,15.533l-2.82-2.827c-0.39-0.39-0.391-1.023,0-1.414l2.825-2.825c0.39-0.39,1.024-0.39,1.414,0
	c0.39,0.39,0.39,1.024,0,1.414l-2.118,2.118l2.113,2.12c0.39,0.39,0.391,1.023,0,1.414C7.136,15.924,6.503,15.923,6.113,15.533z"/>
</svg>
