<?xml version="1.0" encoding="utf-8"?>
<!-- Generator: Adobe Illustrator 26.5.0, SVG Export Plug-In . SVG Version: 6.00 Build 0)  -->
<svg version="1.1" id="_x5F_Link" xmlns="http://www.w3.org/2000/svg" xmlns:xlink="http://www.w3.org/1999/xlink" x="0px" y="0px"
	 width="24px" height="24px" viewBox="0 0 24 24" style="enable-background:new 0 0 24 24;" xml:space="preserve">
<path d="M12.271,15.461c-0.956,0-1.913-0.364-2.641-1.092c-0.314-0.314-0.314-0.822,0-1.136c0.314-0.314,0.823-0.314,1.137,0
	c0.829,0.829,2.178,0.828,3.007,0l4.997-4.997c0.828-0.829,0.828-2.178,0-3.006c-0.83-0.83-2.178-0.828-3.008,0l-1.748,1.748
	c-0.314,0.313-0.822,0.313-1.137,0c-0.314-0.314-0.314-0.823,0-1.137l1.748-1.748c1.455-1.454,3.823-1.456,5.281,0
	c0.706,0.706,1.094,1.643,1.094,2.641c0,0.997-0.389,1.935-1.094,2.64l-4.997,4.996C14.184,15.097,13.227,15.461,12.271,15.461z"/>
<path d="M6.721,21.014c-0.997,0-1.935-0.389-2.64-1.094c-1.455-1.455-1.455-3.825,0-5.281l4.997-4.997
	c1.411-1.411,3.871-1.411,5.28,0c0.314,0.314,0.314,0.823,0,1.137s-0.822,0.314-1.136,0c-0.804-0.803-2.204-0.804-3.006,0
	l-4.998,4.996c-0.828,0.829-0.828,2.179,0,3.008c0.829,0.829,2.179,0.828,3.006,0l1.748-1.748c0.314-0.314,0.823-0.314,1.137,0
	c0.314,0.314,0.314,0.822,0,1.136L9.362,19.92C8.656,20.625,7.718,21.014,6.721,21.014z"/>
</svg>
