<?xml version="1.0" encoding="utf-8"?>
<!-- Generator: Adobe Illustrator 26.5.0, SVG Export Plug-In . SVG Version: 6.00 Build 0)  -->
<svg version="1.1" id="_x5F_List_numbers" xmlns="http://www.w3.org/2000/svg" xmlns:xlink="http://www.w3.org/1999/xlink" x="0px"
	 y="0px" width="24px" height="24px" viewBox="0 0 24 24" style="enable-background:new 0 0 24 24;" xml:space="preserve">
<style type="text/css">
	.st0{fill-rule:evenodd;clip-rule:evenodd;}
</style>
<path d="M5.102,5.01c0-0.14-0.052-0.267-0.152-0.368c-0.1-0.099-0.227-0.151-0.367-0.151H4.446c-0.092,0-0.184,0.023-0.277,0.069
	L3.285,5.023c-0.183,0.09-0.284,0.25-0.284,0.451c0,0.137,0.048,0.257,0.138,0.348c0.135,0.135,0.292,0.207,0.588,0.078l0.37-0.181
	c0,0,0.002,2.217,0.002,2.272c0,0.277,0.224,0.501,0.501,0.501S5.102,8.267,5.102,7.99C5.102,7.935,5.102,5.01,5.102,5.01z"/>
<path d="M5.397,12.982H4.527c0.037-0.025,0.076-0.052,0.117-0.079c0.262-0.171,0.465-0.313,0.619-0.436
	c0.178-0.142,0.331-0.306,0.454-0.488c0.144-0.209,0.217-0.442,0.217-0.694c0-0.252-0.066-0.479-0.195-0.672
	c-0.127-0.192-0.301-0.343-0.517-0.448c-0.207-0.1-0.439-0.151-0.687-0.151c-0.426,0-0.83,0.094-1.203,0.279
	c-0.167,0.092-0.263,0.253-0.263,0.444c0,0.135,0.048,0.256,0.14,0.348c0.142,0.144,0.383,0.182,0.559,0.092
	c0.217-0.096,0.45-0.145,0.691-0.145c0.242,0,0.337,0.052,0.372,0.083c0.036,0.032,0.077,0.084,0.077,0.204
	c0,0.047-0.017,0.092-0.054,0.141c-0.059,0.078-0.132,0.15-0.225,0.22c-0.112,0.084-0.262,0.185-0.445,0.302
	c-0.229,0.149-0.42,0.281-0.566,0.394C3.456,12.5,3.315,12.647,3.2,12.812c-0.132,0.192-0.198,0.404-0.198,0.631
	c0,0.158,0.057,0.296,0.166,0.399c0.103,0.099,0.239,0.152,0.391,0.152h1.839c0.138,0,0.26-0.049,0.355-0.14
	c0.101-0.097,0.155-0.223,0.155-0.364c0-0.138-0.051-0.263-0.149-0.36C5.661,13.033,5.536,12.982,5.397,12.982z"/>
<path d="M5.636,17.464c-0.024-0.022-0.048-0.043-0.073-0.063c0.008-0.009,0.016-0.018,0.025-0.027
	c0.159-0.182,0.24-0.422,0.24-0.715c0-0.367-0.146-0.67-0.422-0.876c-0.469-0.348-1.348-0.404-2.101-0.004
	c-0.163,0.09-0.256,0.249-0.256,0.435c0,0.135,0.053,0.26,0.148,0.351c0.141,0.135,0.308,0.191,0.558,0.089
	c0.181-0.084,0.375-0.125,0.592-0.125c0.231,0,0.333,0.047,0.372,0.074c0.045,0.032,0.053,0.057,0.053,0.098
	c0,0.075-0.022,0.111-0.09,0.151c-0.08,0.046-0.242,0.101-0.587,0.101c-0.137,0-0.266,0.055-0.361,0.151
	c-0.099,0.099-0.151,0.224-0.151,0.361c0,0.137,0.052,0.262,0.15,0.36c0.097,0.098,0.225,0.152,0.437,0.152
	c0.477,0,0.719,0.092,0.719,0.275c0,0.07-0.018,0.09-0.071,0.116c-0.268,0.129-0.761,0.114-1.105-0.023
	c-0.21-0.085-0.434-0.034-0.572,0.117c-0.091,0.098-0.138,0.219-0.138,0.352c0,0.11,0.032,0.213,0.094,0.297
	c0.056,0.077,0.131,0.135,0.222,0.173l0.001,0c0.342,0.139,0.711,0.21,1.097,0.21c0.42,0,0.774-0.098,1.053-0.293
	c0.311-0.216,0.475-0.537,0.475-0.926C5.945,17.928,5.841,17.656,5.636,17.464z"/>
<path class="st0" d="M9,7.492h11c0.553,0,1-0.447,1-1s-0.447-1-1-1H9c-0.553,0-1,0.447-1,1S8.447,7.492,9,7.492"/>
<path class="st0" d="M9,18.496h11c0.553,0,1-0.447,1-1c0-0.553-0.447-1-1-1H9c-0.553,0-1,0.447-1,1C8,18.049,8.447,18.496,9,18.496"
	/>
<path class="st0" d="M9,12.994h11c0.553,0,1-0.447,1-1c0-0.553-0.447-1-1-1H9c-0.553,0-1,0.447-1,1C8,12.547,8.447,12.994,9,12.994"
	/>
</svg>
