<?xml version="1.0" encoding="utf-8"?>
<!-- Generator: Adobe Illustrator 26.5.0, SVG Export Plug-In . SVG Version: 6.00 Build 0)  -->
<svg version="1.1" id="_x5F_Bullet_points" xmlns="http://www.w3.org/2000/svg" xmlns:xlink="http://www.w3.org/1999/xlink" x="0px"
	 y="0px" width="24px" height="24px" viewBox="0 0 24 24" style="enable-background:new 0 0 24 24;" xml:space="preserve">
<style type="text/css">
	.st0{fill-rule:evenodd;clip-rule:evenodd;}
</style>
<path id="Icon-Color" class="st0" d="M4.1,16.3c-0.607,0-1.1,0.493-1.1,1.101C3,18.008,3.493,18.5,4.1,18.5s1.1-0.492,1.1-1.099
	C5.2,16.793,4.707,16.3,4.1,16.3 M4.1,10.901C3.493,10.901,3,11.393,3,12c0,0.608,0.493,1.1,1.1,1.1s1.1-0.492,1.1-1.1
	C5.2,11.393,4.707,10.901,4.1,10.901 M4.1,5.492c-0.607,0-1.1,0.493-1.1,1.1C3,7.2,3.493,7.693,4.1,7.693S5.2,7.2,5.2,6.592
	C5.2,5.985,4.707,5.492,4.1,5.492 M9,7.593h11c0.553,0,1-0.447,1-1s-0.447-1-1-1H9c-0.553,0-1,0.447-1,1S8.447,7.593,9,7.593 M20,11
	H9c-0.553,0-1,0.447-1,1c0,0.553,0.447,1,1,1h11c0.553,0,1-0.447,1-1C21,11.447,20.553,11,20,11 M21,17.401c0,0.552-0.447,1-1,1H9
	c-0.553,0-1-0.448-1-1c0-0.553,0.447-1,1-1h11C20.553,16.401,21,16.848,21,17.401"/>
</svg>
