<?xml version="1.0" encoding="utf-8"?>
<!-- Generator: Adobe Illustrator 26.5.0, SVG Export Plug-In . SVG Version: 6.00 Build 0)  -->
<svg version="1.1" id="_x5F_Quote" xmlns="http://www.w3.org/2000/svg" xmlns:xlink="http://www.w3.org/1999/xlink" x="0px" y="0px"
	 width="24px" height="24px" viewBox="0 0 24 24" style="enable-background:new 0 0 24 24;" xml:space="preserve">
<g>
	<path d="M17,9.558c0-1.073-0.87-1.942-1.94-1.942c-1.071,0-1.94,0.87-1.94,1.942c0,1.071,0.87,1.94,1.94,1.94
		c0.077,0,0.15-0.014,0.224-0.023c-0.25,1.34-0.907,2.564-1.919,3.529c-0.32,0.305-0.332,0.812-0.027,1.131
		c0.157,0.165,0.368,0.248,0.579,0.248c0.198,0,0.397-0.073,0.552-0.221C16.101,14.608,17,12.51,17,10.256
		C17,10.163,17,9.708,17,9.558z"/>
	<path d="M10.884,9.558c0-1.073-0.87-1.942-1.94-1.942c-1.071,0-1.94,0.87-1.94,1.942c0,1.071,0.87,1.94,1.94,1.94
		c0.077,0,0.15-0.014,0.224-0.023c-0.25,1.34-0.907,2.564-1.919,3.529c-0.32,0.305-0.332,0.812-0.027,1.131
		c0.157,0.165,0.368,0.248,0.579,0.248c0.198,0,0.397-0.073,0.552-0.221c1.633-1.556,2.532-3.653,2.532-5.907
		C10.884,10.163,10.884,9.708,10.884,9.558z"/>
</g>
</svg>
