<?xml version="1.0" encoding="utf-8"?>
<!-- Generator: Adobe Illustrator 26.5.0, SVG Export Plug-In . SVG Version: 6.00 Build 0)  -->
<svg version="1.1" id="_x5F_Letter_strikethrough" xmlns="http://www.w3.org/2000/svg" xmlns:xlink="http://www.w3.org/1999/xlink"
	 x="0px" y="0px" width="24px" height="24px" viewBox="0 0 24 24" style="enable-background:new 0 0 24 24;" xml:space="preserve">
<path d="M8.999,9.959c-0.239-0.147-0.46-0.31-0.653-0.495c-0.425-0.408-0.64-0.944-0.64-1.593c0-0.966,0.445-1.728,1.323-2.264
	c0.857-0.521,1.979-0.786,3.336-0.786c1.414,0,2.805,0.234,4.133,0.696c0.196,0.079,0.304,0.095,0.36,0.095
	c0.264,0,0.47-0.092,0.631-0.282c0.165-0.196,0.246-0.409,0.246-0.65c0-0.448-0.202-0.739-0.619-0.889
	c-1.485-0.553-3.169-0.833-5.005-0.833c-1.359,0-2.54,0.231-3.508,0.688C7.643,4.1,6.906,4.718,6.416,5.483
	c-0.491,0.764-0.74,1.627-0.74,2.565c0,0.74,0.152,1.375,0.435,1.91H8.999z"/>
<path d="M19,11.959H4.97c-0.553,0-1,0.448-1,1c0,0.553,0.447,1,1,1h9.776c0.417,0.183,0.798,0.399,1.102,0.671
	c0.411,0.368,0.618,0.833,0.618,1.381c0,2.04-1.542,3.074-4.583,3.074c-1.788,0-3.49-0.355-5.06-1.058
	c-0.133-0.061-0.276-0.091-0.425-0.091c-0.267,0-0.478,0.09-0.646,0.274c-0.172,0.188-0.256,0.402-0.256,0.657
	c0,0.195,0.059,0.374,0.179,0.546c0.119,0.173,0.269,0.298,0.446,0.371l0.002,0.001C7.976,20.591,9.991,21,12.112,21
	c1.261,0,2.387-0.211,3.347-0.628c0.953-0.411,1.702-0.992,2.227-1.726c0.522-0.729,0.787-1.564,0.787-2.482
	c0-0.876-0.181-1.612-0.526-2.205H19c0.553,0,1-0.447,1-1C20,12.406,19.553,11.959,19,11.959z"/>
</svg>
