<?xml version="1.0" encoding="utf-8"?>
<!-- Generator: Adobe Illustrator 26.5.0, SVG Export Plug-In . SVG Version: 6.00 Build 0)  -->
<svg version="1.1" id="_x5F_Letter_underlined" xmlns="http://www.w3.org/2000/svg" xmlns:xlink="http://www.w3.org/1999/xlink"
	 x="0px" y="0px" width="24px" height="24px" viewBox="0 0 24 24" style="enable-background:new 0 0 24 24;" xml:space="preserve">
<path d="M17,4c0-0.552-0.448-1-1-1s-1,0.448-1,1c0,0,0,8.951,0,9c0,1.654-1.346,3-3,3s-3-1.346-3-3c0-0.049,0-9,0-9
	c0-0.552-0.448-1-1-1S7,3.448,7,4c0,0,0,8.951,0,9c0,2.761,2.239,5,5,5s5-2.239,5-5C17,12.951,17,4,17,4z"/>
<path d="M19,22H5c-0.552,0-1-0.447-1-1s0.448-1,1-1h14c0.553,0,1,0.447,1,1S19.553,22,19,22z"/>
</svg>
