<?xml version="1.0" encoding="utf-8"?>
<!-- Generator: Adobe Illustrator 26.5.0, SVG Export Plug-In . SVG Version: 6.00 Build 0)  -->
<svg version="1.1" id="_x5F_Undo" xmlns="http://www.w3.org/2000/svg" xmlns:xlink="http://www.w3.org/1999/xlink" x="0px" y="0px"
	 width="24px" height="24px" viewBox="0 0 24 24" style="enable-background:new 0 0 24 24;" xml:space="preserve">
<style type="text/css">
	.st0{fill-rule:evenodd;clip-rule:evenodd;}
</style>
<path class="st0" d="M3.061,11.247c0.04-0.098,0.099-0.186,0.173-0.26L6.63,7.591c0.313-0.313,0.819-0.313,1.132,0
	c0.313,0.313,0.313,0.819,0,1.132l-2.03,2.03c0,0,10.072,0,10.152,0c2.821,0,5.116,2.295,5.116,5.117
	c0,2.821-2.295,5.117-5.116,5.117c-0.441,0-0.8-0.358-0.8-0.8s0.358-0.8,0.8-0.8c1.938,0,3.517-1.578,3.517-3.517
	c0-1.937-1.573-3.512-3.508-3.517H5.732l2.03,2.03c0.313,0.313,0.313,0.819,0,1.132c-0.313,0.313-0.819,0.313-1.132,0l-3.396-3.396
	c-0.074-0.074-0.132-0.162-0.173-0.26C2.979,11.663,2.98,11.443,3.061,11.247z"/>
</svg>
