<svg id="b0a90d81-7e1f-4f8c-9d79-343dd98718ba" data-name="Layer 1" xmlns="http://www.w3.org/2000/svg" width="909" height="453" viewBox="0 0 909 453"><circle cx="248.18685" cy="325.81866" r="44.68221" fill="#e4e4e4"/><path d="M360.695,519.47445a44.68569,44.68569,0,0,0,74.45376,47.29034A44.68605,44.68605,0,1,1,360.695,519.47445Z" transform="translate(-145.5 -223.5)" opacity="0.2" style="isolation:isolate"/><polygon points="248.31 325.819 248.432 325.819 250.642 452.5 245.977 452.5 248.31 325.819" fill="#3f3d56"/><circle cx="157.78162" cy="197.08744" r="90.08744" fill="#e4e4e4"/><path d="M236.764,360.4161A90.09446,90.09446,0,0,0,386.87626,455.762,90.0952,90.0952,0,1,1,236.764,360.4161Z" transform="translate(-145.5 -223.5)" opacity="0.2" style="isolation:isolate"/><polygon points="158.029 197.087 158.277 197.087 162.732 452.5 153.327 452.5 158.029 197.087" fill="#3f3d56"/><rect x="338.809" y="320.29982" width="412.92155" height="122.40757" fill="#f0f0f0"/><rect x="521.19629" y="345.59739" width="48.14698" height="97.11001" fill="#cacaca"/><rect x="362.88249" y="175.85888" width="364.77457" height="112.61497" fill="#f0f0f0"/><path d="M910.13873,406.29531H471.40082a3.67218,3.67218,0,0,1-2.54478-6.31961l119.90743-115.256V234.51668a3.67637,3.67637,0,0,1,3.67222-3.67223h23.66547a3.67624,3.67624,0,0,1,3.67222,3.67223v20.39648l9.05685-8.7056a81.37343,81.37343,0,0,1,110.80037-1.84249L912.59406,399.892a3.67254,3.67254,0,0,1-2.45533,6.40329Z" transform="translate(-145.5 -223.5)" fill="#cacaca"/><path d="M459.17643,204.42065h0a23.25742,23.25742,0,0,1,23.25742,23.25742v31.418a0,0,0,0,1,0,0H435.919a0,0,0,0,1,0,0v-31.418A23.25742,23.25742,0,0,1,459.17643,204.42065Z" fill="#fff"/><path d="M545.26975,204.82867h0a23.25742,23.25742,0,0,1,23.25742,23.25742v31.418a0,0,0,0,1,0,0H522.01234a0,0,0,0,1,0,0v-31.418A23.25742,23.25742,0,0,1,545.26975,204.82867Z" fill="#fff"/><path d="M631.36308,205.2367h0a23.25742,23.25742,0,0,1,23.25742,23.25742v31.418a0,0,0,0,1,0,0H608.10567a0,0,0,0,1,0,0v-31.418A23.25742,23.25742,0,0,1,631.36308,205.2367Z" fill="#fff"/><path d="M665.6372,344.37331h0a23.25742,23.25742,0,0,1,23.25742,23.25742v31.418a0,0,0,0,1,0,0H642.37979a0,0,0,0,1,0,0v-31.418A23.25742,23.25742,0,0,1,665.6372,344.37331Z" fill="#fff"/><path d="M435.511,344.37331h0a23.25742,23.25742,0,0,1,23.25742,23.25742v31.418a0,0,0,0,1,0,0H412.25355a0,0,0,0,1,0,0v-31.418A23.25742,23.25742,0,0,1,435.511,344.37331Z" fill="#fff"/><path d="M957.55673,545.71109,880.09728,511.437a3.26366,3.26366,0,0,0-1.32071-.27917H509.61772a3.26264,3.26264,0,0,0-1.22925.24027l-84.31459,34.27412a3.26423,3.26423,0,0,0,1.22925,6.28813H447.1787v112.615h-2.44815V676H936.809V664.57529h-4.08025v-112.615H956.236A3.26418,3.26418,0,0,0,957.55673,545.71109Zm-31.35638,118.8642H453.70711v-112.615H926.20035Z" transform="translate(-145.5 -223.5)" fill="#cacaca"/><rect x="428.57456" y="254.60775" width="59.57169" height="9.79261" fill="#cacaca"/><rect x="515.89196" y="254.60775" width="59.57169" height="9.79261" fill="#cacaca"/><rect x="603.20936" y="254.60775" width="59.57169" height="9.79261" fill="#cacaca"/><rect x="635.85138" y="395.78449" width="59.57169" height="9.79261" fill="#cacaca"/><rect x="404.90909" y="395.78449" width="59.57169" height="9.79261" fill="#cacaca"/><path d="M1053.5,676.5h-907a1,1,0,0,1,0-2h907a1,1,0,0,1,0,2Z" transform="translate(-145.5 -223.5)" fill="#3f3d56"/><path d="M825.36648,397.67993c0,.64014-.01,1.29-.02,1.93006-.01.77-.03,1.53-.06006,2.29992-.02979.67005-.06006,1.33008-.09986,1.99-.12011,2.21009-.31005,4.41016-.57006,6.62012-.06006.55994-.12989,1.11-.21,1.66992-.06006.43006-.12012.87012-.18995,1.31006-.07006.49-.14013.98-.22021,1.47q-.23986,1.56006-.54,3.12c-.09985.52-.19971,1.04-.30981,1.55993-.21,1.03-.44019,2.07007-.67994,3.1001-.02.08-.04.16992-.06005.25-.12012.51-.24,1.01-.37012,1.52-.04.1499-.06983.29-.11987.43994-.09009.38-.19019.76-.29,1.14-.1399.53-.28,1.04992-.42994,1.57995-.24023.82007-.48,1.63013-.73,2.45007a2.58139,2.58139,0,0,0-.08007.26c-.48,1.54993-.99,3.08-1.55,4.6-.29.8-.59986,1.61-.90992,2.40991-.31.8-.63012,1.6001-.96,2.39014-.32006.77-.65014,1.53992-.98,2.29993-.08007.18-.16015.36-.25.54-.35009.78992-.7102,1.55994-1.08007,2.33-.01.01-.01.03-.02.04-.29.62-.6001,1.24-.91016,1.85a.07467.07467,0,0,1-.02.04992c-.2998.6001-.60986,1.20008-.92993,1.79l-.51.97-.06006.11011c-.63989,1.18994-1.2998,2.37-2,3.54-.1499.26-.2998.5199-.44971.7699-.15014.26-.31006.52-.47021.77q-.14979.27007-.33008.54c-.21.34-.41992.69-.63989,1.02991-.04.07007-.09009.14014-.12989.21008-.38012.59-.76,1.17005-1.14013,1.76-.47.71-.95,1.41-1.43994,2.11l-10.86011,17.38-.47-.39-.12988-.12h-.01l-.43018-.36-1.17993-1c-.35986.35-.71.7-1.07007,1.04-.13989.13989-.28979.27-.42993.40991-.10986.1001-.21.2-.32007.3a104.718,104.718,0,0,1-69.98,29.75h-.02979a114.29827,114.29827,0,0,1-57.03-13.46c-.39014-.20007-.77-.40015-1.15015-.63013-2.27979-1.24-4.50977-2.54992-6.7-3.95-.01-.01-.02-.01-.03-.02q-3.81006-2.70008-7.43994-5.76a109.92718,109.92718,0,0,1-38.92993-89.79c.03-.67.07006-1.32995.11987-2q.24023-3.63.74-7.23c.09009-.67.19018-1.34.29-2h213.78q.62988,4.59.87011,9.23C825.31643,393.83,825.36648,395.75,825.36648,397.67993Z" transform="translate(-145.5 -223.5)" fill="#f0f0f0"/><path d="M824.34646,382.67a108.09184,108.09184,0,0,0-213.78,0c-.09986.66-.19995,1.33-.29,2q-.49476,3.6-.74,7.23H825.21657Q824.97635,387.265,824.34646,382.67Z" transform="translate(-145.5 -223.5)" fill="#6c63ff"/><path d="M724.45886,494.04669H662.52124V444.50025c1.14284-22.64294,20.49578-24.47138,38.68036-23.25619a23.25555,23.25555,0,0,1,23.25726,23.25619Z" transform="translate(-145.5 -223.5)" fill="#6c63ff"/><path d="M662.51638,458.82007V458.83c0,.01.01.01.02.01ZM637.60647,382.67c-.04.25-.09009.5-.13013.75.04-.25.09009-.5.14014-.75Zm-1.24,9.23c-.03.38-.06006.76-.08008,1.14q.03-.57.09009-1.14a1.47492,1.47492,0,0,1,.01-.21C636.37649,391.76,636.37649,391.83,636.36648,391.9Zm26.1499,66.93c0,.01.01.01.02.01l-.02-.0199Zm-24.90991-76.16c-.04.25-.09009.5-.13013.75.04-.25.09009-.5.14014-.75Zm-1.32007,10.37q.03-.57.09009-1.14a1.47492,1.47492,0,0,1,.01-.21c-.01.07-.01.14-.02.21C636.33645,392.28,636.30642,392.66,636.2864,393.04ZM945.22634,577a6.77183,6.77183,0,0,0-.61987-.58008l-.01-.01-49.52-41.78991-1.28-1.08-4.86988-4.11011-1.22021-1.03L880.76638,522.54l-1.8999-1.6001L874.93654,517.62l-2.01-1.70008-18.96-15.99L843.09646,490.76l-1.46-1.23-32.03-27.03c.49-.7.97-1.4,1.43994-2.11.38012-.59.76-1.17,1.14013-1.76.0398-.06994.08985-.14.12989-.21008.22-.34.42993-.68994.63989-1.02991q.18018-.27007.33008-.54c.16015-.25.32007-.51.47021-.77.14991-.25.29981-.50989.44971-.7699.7002-1.17005,1.36011-2.3501,2-3.54l.06006-.11011.51-.97c.32007-.59.63013-1.18994.92993-1.79a.07467.07467,0,0,0,.02-.04992c.31006-.61.62012-1.23.91016-1.85.01-.01.01-.03.02-.04.36987-.77.73-1.54,1.08007-2.33.08985-.18.16993-.36.25-.54.32984-.76.65992-1.52991.98-2.29993.32984-.79.64991-1.59009.96-2.39014.31006-.79992.61988-1.60986.90992-2.40991q.82507-2.295,1.55-4.6a2.58139,2.58139,0,0,1,.08007-.26c.25-.81994.48975-1.63.73-2.45007.14991-.53.29-1.04993.42994-1.57995.09985-.38.2-.76.29-1.14.05-.1499.07983-.29.11987-.43994.13013-.51.25-1.01.37012-1.52.02-.08008.04-.17.06005-.25.23975-1.03.47-2.07007.67994-3.1001.1101-.5199.21-1.03991.30981-1.55993.19019-1.03992.38013-2.08.54-3.12.08008-.49.15015-.98.22021-1.47.06983-.43994.12989-.88.18995-1.31006.08007-.55994.1499-1.11.21-1.66992.26-2.21.44995-4.41.57006-6.62012.0398-.65991.07007-1.31994.09986-1.99.03-.7699.05005-1.52991.06006-2.29992.01-.64.02-1.28992.02-1.93006,0-1.92993-.05005-3.85-.14991-5.78q-.24023-4.63494-.87011-9.23a110.05211,110.05211,0,0,0-217.78-2c-.09986.66-.19995,1.33-.29,2q-.49476,3.6-.74,7.23c-.04981.67005-.08985,1.33-.11987,2a109.92718,109.92718,0,0,0,38.92993,89.79q3.62988,3.06006,7.43994,5.76c.01.01.02.01.03.02.8501.6001,1.7,1.18994,2.56006,1.77,1.36987.9,2.75,1.78,4.13989,2.62.11011.05993.22021.13.33008.19006,1.2.72,2.41015,1.40991,3.62011,2.07995h.00977a108.15267,108.15267,0,0,0,13.99023,6.44007,110.38385,110.38385,0,0,0,44.23,6.93994h.02979a109.76088,109.76088,0,0,0,49.91016-14.77c2.21-1.28,4.38989-2.65,6.52-4.11.53-.36,1.06982-.7301,1.58984-1.1.64014-.45007,1.28-.92,1.92017-1.39.01,0,.01-.01.02-.01a1.42983,1.42983,0,0,1,.14991-.11c.42993-.33008.86987-.66,1.29-.98.1101-.08008.22-.16.32983-.25a.48138.48138,0,0,0,.08008-.07007c.25-.17993.49-.38.74-.57007.25-.18994.49-.38989.74-.58984a.9391.9391,0,0,0,.12012-.09009c.28-.23.56005-.45.83984-.67993.29-.23.57007-.47.84009-.70007.28-.23.55005-.46.83008-.7.24-.20007.49-.41.73-.63.07983-.06006.1499-.13.23-.2a.71346.71346,0,0,1,.09985-.08008c.33008-.28.65015-.57007.97021-.86.08008-.07.14991-.14.23-.21009.49-.43994.98-.87988,1.46-1.33984.10986-.1001.23-.21008.33984-.31006.11011-.1001.21021-.2.32007-.3.14014-.13989.29-.27.42993-.40991.36011-.34009.71021-.69006,1.07007-1.04l1.17993,1,.43018.36h.01l.12988.12.47.39,6.98,5.9.15015.12988.11987.09009.79.66992,1.58008,1.34009,1.58007,1.33.23.19006,7.34986,6.2,1.02.86,7.09009,5.9801,36.7,30.97,1.28,1.08,50.23,42.38,12.87988,10.87,4.79,4.03991a10.13315,10.13315,0,0,0,14.29-1.19995,9.84215,9.84215,0,0,0,1.68994-2.84A10.09075,10.09075,0,0,0,945.22634,577ZM655.55642,345.19a82.447,82.447,0,0,1,143.95019,37.48c.12989.67.25,1.33.35987,2,.40991,2.39.71,4.81.89013,7.23.04981.67005.09986,1.33.12989,2,.08984,1.5.12988,3.01.12988,4.51a82.07827,82.07827,0,0,1-4.46,26.74v.01a82.00716,82.00716,0,0,1-14.97,26.38013c-.1399.15991-.28.33-.42993.49-1.32007,1.55994-2.71,3.05994-4.14014,4.49-.00977.01-.02.03-.02979.04-.49023.49-.99023.99-1.49023,1.45-1.02.99-2.05982,1.92993-3.11987,2.83q-2.38514,2.085-4.8899,3.91c-.56006.40991-1.12011.81006-1.69018,1.21-.55982.4-1.12988.78-1.7,1.16-1.14014.76-2.3,1.49-3.47,2.18-.58008.34985-1.17994.68994-1.77,1.02-.59009.33984-1.18994.65991-1.79.97-.59986.32-1.19995.62988-1.80982.92993-1.2102.61-2.43017,1.17993-3.67016,1.71q-.92982.42-1.86011.78c-.38989.16-.77.32007-1.15991.46a3.761,3.761,0,0,1-.47.18006q-.31494.13494-.62989.24a1.81589,1.81589,0,0,1-.21.07995c-.43017.17005-.85009.32007-1.29.47009-.63012.23-1.26025.44-1.90014.64-.6399.21-1.27.40991-1.90991.59-.64014.20007-1.29.38-1.93018.54992-.6499.18006-1.2898.3501-1.93994.5-.68994.18006-1.37988.34009-2.08008.49-.60986.14014-1.21.26-1.81982.37012-.57007.11987-1.14991.22-1.72.32-.8.14-1.6001.27-2.40992.38-.44018.07007-.87011.13-1.31006.16992-.18994.03-.37011.05-.55.07007-.56006.08008-1.12012.14-1.67017.18994-.1499.01-.2898.03-.42993.04-.60987.06006-1.23.11011-1.84009.16-1.30981.09-2.60986.15-3.91992.18-.65991.01-1.33008.02-1.99.02s-1.32007-.01-1.98-.03c0,0,0,.01-.01,0-.01.01-.01.01-.02,0a.01386.01386,0,0,1-.02,0,.16975.16975,0,0,1-.09985,0c-.47,0-.94019-.02-1.40015-.05-.33985-.01-.68994-.02-1.04-.05q-.7046-.03-1.40991-.09c-.1499,0-.3-.0199-.44995-.02991a1.48637,1.48637,0,0,1-.21-.02c-.48-.04-.97-.08008-1.4502-.13013-.23975-.0199-.48975-.03991-.73-.06994-.73-.08-1.46-.17005-2.17993-.2699-.82007-.1001-1.63989-.22009-2.45-.37012-.37989-.05-.75-.12-1.12012-.18994q-.73463-.12012-1.46973-.27c-.51025-.1-1.02-.2-1.53027-.32007-.40991-.09-.82983-.17993-1.23975-.27991-.20019-.04-.40014-.09-.59008-.14-1.05005-.25-2.09009-.52-3.12012-.82007-.6499-.17993-1.3-.36987-1.93994-.56994-.88013-.27-1.75-.55994-2.61988-.87-.34008-.11-.67016-.23-1.01025-.36-.33984-.11-.66992-.24-1.00977-.37-.31005-.11011-.62011-.23-.92016-.3501-.5-.18994-.99-.38989-1.48-.58984-1.01-.41016-2-.84009-2.99-1.3-.56006-.27-1.11988-.53-1.66992-.8q-3.25489-1.57507-6.41016-3.5c-.52-.31006-1.0398-.64-1.55981-.97-.65015-.4-1.28-.82007-1.90992-1.24-.35009-.24-.69018-.47-1.03027-.71-.62988-.44006-1.25-.89014-1.85986-1.34009-.32007-.23-.64014-.47-.95-.71-1.11011-.84009-2.2-1.72-3.27-2.62-.51-.43-1.02-.87-1.52-1.31994-.21-.18006-.42017-.37012-.63013-.56006-.23975-.22-.48-.42993-.71-.66l-.02-.0199c-.34985-.31006-.7-.64014-1.04-.97009-.52979-.5-1.04981-1.01-1.54981-1.52991-.52-.51-1.02-1.04-1.51-1.56006-.5-.52-.98-1.05-1.45-1.59009q-.72-.79486-1.41015-1.61987c-.45-.52-.88989-1.06006-1.31006-1.59009q-1.53-1.89-2.91992-3.85c-.42993-.6-.83985-1.20008-1.24-1.80994-.42993-.62012-.84009-1.25-1.23-1.88013-.40992-.62988-.8-1.27-1.17994-1.91992a.20915.20915,0,0,0-.04-.06006c-.75-1.27-1.47-2.54993-2.14014-3.85q-1.03491-1.97992-1.94995-4c-.30982-.67005-.60987-1.35-.88989-2.02991-.58008-1.37012-1.12012-2.74-1.62012-4.13013-.25-.66992-.48-1.34-.71-2.02a.49523.49523,0,0,0-.04-.12988c-.46-1.38013-.87988-2.77-1.25-4.17-.01-.02-.01-.03992-.02-.05994-.18994-.69006-.36987-1.38013-.52979-2.08008-.16015-.61-.3-1.22-.43017-1.84-.1499-.69006-.29981-1.38-.42993-2.07995-.07007-.36011-.1399-.72009-.2-1.08008-.06-.3-.1101-.61-.16015-.90991-.04981-.3-.09985-.61011-.1499-.92005q-.15015-.915-.27-1.82995c-.1001-.72009-.17993-1.44006-.26-2.17005-.09009-.87-.16992-1.74011-.24-2.62-.05-.59009-.08008-1.19006-.10987-1.79-.03027-.55-.06006-1.1-.07006-1.65a.13853.13853,0,0,1,0-.09.01386.01386,0,0,1,0-.02c-.01-.01-.01-.01,0-.02a.01386.01386,0,0,1,0-.02c-.01-.22-.02-.43994-.02-.65991q-.03-.975-.03-1.95c0-.59009.01-1.17011.02-1.76007q.03-1.23.08984-2.46c0-.18.02-.35.03027-.53.00977-.18.01978-.35.02979-.53q.03-.57.09009-1.14a1.47492,1.47492,0,0,1,.01-.21c.03-.43.06982-.86.10986-1.29.08008-.86.18017-1.73.29-2.59.06006-.43.11011-.86.18017-1.29.04-.3.08985-.61.1399-.92q.06006-.465.15014-.93c.06983-.41.1399-.83.21973-1.25.04-.25.09009-.5.14014-.75q.28491-1.5.62988-3c.23-1.01.49023-2.01.77-3.01.27-1.01.57007-2.02.89014-3.03.1499-.51.31005-1.01.49-1.51.32983-1.01.67993-2.01,1.07006-3,.17994-.49.36988-.99.57984-1.48.40014-.99.82007-1.98,1.25-2.95.22-.49.44018-.98.67993-1.47.45019-.97.92017-1.94,1.43018-2.89.49-.97,1.02-1.92,1.56005-2.86s1.09986-1.88,1.68995-2.81c.27-.46.56982-.93.87988-1.38.6001-.92,1.23-1.84,1.87012-2.74C652.69655,348.72,654.08645,346.93,655.55642,345.19ZM636.36648,391.9c-.03.38-.06006.76-.08008,1.14q.03-.57.09009-1.14a1.47492,1.47492,0,0,1,.01-.21C636.37649,391.76,636.37649,391.83,636.36648,391.9Zm1.24-9.23c-.04.25-.09009.5-.13013.75.04-.25.09009-.5.14014-.75Zm24.90991,76.15009V458.83c0,.01.01.01.02.01Z" transform="translate(-145.5 -223.5)" fill="#3f3d56"/><path d="M665.39757,461.37905a82.45487,82.45487,0,0,1-13.99113-110.84027q-2.36469,2.38145-4.572,4.98814A82.45039,82.45039,0,1,0,772.86388,461.87q2.20231-2.61,4.14788-5.346A82.45472,82.45472,0,0,1,665.39757,461.37905Z" transform="translate(-145.5 -223.5)" opacity="0.3" style="isolation:isolate"/></svg>
