<?xml version="1.0" encoding="UTF-8"?>
<svg width="405px" height="300px" viewBox="0 -37 405 337" version="1.1" xmlns="http://www.w3.org/2000/svg" xmlns:xlink="http://www.w3.org/1999/xlink">
    <g id="Page-1" stroke="none" stroke-width="1" fill="none" fill-rule="evenodd">
        <g id="right" transform="translate(0.330150, 0.930250)" fill-rule="nonzero">
            <path d="M205.3228,0 L393.87262,0 C399.20132,0.00599587213 403.519597,4.32425041 403.52562,9.65295 L403.52562,289.24242 C403.51963,294.571141 399.201341,298.88943 393.87262,298.89542 L205.3228,298.89542 C199.994079,298.88943 195.67579,294.571141 195.6698,289.24242 L195.6698,9.65295 C195.675823,4.32425041 199.9941,0.00599587213 205.3228,0 Z" id="Path" fill="#F2F2F2"></path>
            <path d="M207.66291,7.02033 L391.53251,7.02033 C394.277603,7.02339415 396.502176,9.24796727 396.50524,11.99306 L396.50524,286.90232 C396.502176,289.647413 394.277603,291.871986 391.53251,291.87505 L207.66291,291.87505 C204.917817,291.871986 202.693244,289.647413 202.69018,286.90232 L202.69018,11.99306 C202.693244,9.24796727 204.917817,7.02339415 207.66291,7.02033 Z" id="Path" fill="#FFFFFF"></path>
            <path d="M213.24248,141.55537 L9.653,141.55537 C4.3242786,141.54938 0.00599042605,137.231091 0,131.90237 L0,28.35261 C0.00601797441,23.0239081 4.32429809,18.7056504 9.653,18.69966 L213.24248,18.69966 C218.571182,18.7056504 222.889462,23.0239081 222.89548,28.35261 L222.89548,131.90242 C222.889462,137.231122 218.571182,141.54938 213.24248,141.55537 L213.24248,141.55537 Z" id="Path" fill="#CCCCCC"></path>
            <path d="M210.90237,134.53505 L11.99311,134.53505 C9.24801727,134.531986 7.02344415,132.307413 7.02038,129.56232 L7.02038,30.69271 C7.02344415,27.9476173 9.24801727,25.7230441 11.99311,25.71998 L210.90237,25.71998 C213.647463,25.7230441 215.872036,27.9476173 215.8751,30.69271 L215.8751,129.56232 C215.872036,132.307413 213.647463,134.531986 210.90237,134.53505 Z" id="Path" fill="#FFFFFF"></path>
            <path d="M199.383,159.49733 L177.01257,137.12718 L205.692774,137.85218 L205.692774,156.88384 C205.708391,158.383537 204.802478,159.73932 203.41088,160.2986 C202.955411,160.489245 202.466777,160.588068 201.97302,160.5894 C200.998412,160.586218 200.065656,160.192926 199.383,159.49733 Z" id="Path" fill="#CCCCCC"></path>
            <path d="M186.68396,75.693785 L86.05928,75.693785 C84.3855707,75.6962265 82.8379517,74.804718 82.0003901,73.3556496 C81.1628284,71.9065812 81.1628284,70.1205488 82.0003901,68.6714804 C82.8379517,67.222412 84.3855707,66.3309035 86.05928,66.333345 L186.68396,66.333345 C188.357669,66.3309035 189.905288,67.222412 190.74285,68.6714804 C191.580412,70.1205488 191.580412,71.9065812 190.74285,73.3556496 C189.905288,74.804718 188.357669,75.6962265 186.68396,75.693785 Z" id="Path" fill="#CCCCCC"></path>
            <path d="M153.92244,55.80286 L86.05928,55.80286 C84.3871983,55.80286 82.842131,54.9108154 82.0060901,53.4627502 C81.1700492,52.014685 81.1700492,50.230595 82.0060901,48.7825298 C82.842131,47.3344646 84.3871983,46.44242 86.05928,46.44242 L153.92244,46.44242 C156.507254,46.44242 158.602659,48.5378261 158.602659,51.12264 C158.602659,53.7074539 156.507254,55.80286 153.92244,55.80286 L153.92244,55.80286 Z" id="Path" fill="#CCCCCC"></path>
            <circle id="Oval" fill="#6C63FF" cx="44.40505" cy="61.06811" r="14.62568"></circle>
            <circle id="Oval" fill="#E6E6E6" cx="155.67436" cy="109.13239" r="4.68022"></circle>
            <circle id="Oval" fill="#E6E6E6" cx="172.05512" cy="109.13239" r="4.68022"></circle>
            <circle id="Oval" fill="#E6E6E6" cx="188.43589" cy="109.13239" r="4.68022"></circle>
            <path d="M215.47897,204.22976 C217.119248,201.746663 219.775136,200.117642 222.731988,199.781033 C225.68884,199.444423 228.642922,200.434802 230.79935,202.48568 L262.55377,186.09556 L260.57977,204.56004 L230.72785,217.29356 C226.959657,220.76406 221.191263,220.867676 217.300862,217.534745 C213.410461,214.201815 212.627754,208.48583 215.47897,204.22975 L215.47897,204.22976 Z" id="Path" fill="#FFB8B8"></path>
            <path d="M314.35127,122.13966 C309.292668,118.181104 302.232546,118.022404 297.00118,121.74966 C295.852165,122.574544 294.82542,123.557587 293.95137,124.66966 L266.07149,176.37966 L240.34149,195.81966 C239.488764,196.462072 238.893035,197.387481 238.66131,198.42966 C238.486384,199.19405 238.517389,199.991166 238.75116,200.73966 L241.28143,208.89966 C241.5521,209.776267 242.082053,210.550276 242.80143,211.11966 C243.082068,211.330069 243.383625,211.511023 243.70133,211.65966 C243.739492,211.680523 243.779756,211.697283 243.82145,211.70966 C244.955372,212.196452 246.240088,212.192832 247.37125,211.69966 L277.53141,198.61966 L277.86149,198.46966 C288.027057,193.971221 296.236352,185.96772 300.99137,175.91961 L316.85123,142.44961 C321.744559,136.143987 320.627686,127.070394 314.35127,122.13966 Z" id="Path" fill="#3F3D56"></path>
            <circle id="Oval" fill="#FFB8B8" cx="317.54724" cy="78.5235" r="24.56103"></circle>
            <polygon id="Path" fill="#2F2E41" points="334.17159 242.76966 333.92159 240.85966 332.76143 232.14966 331.49143 222.63966 326.98167 223.40966 325.24143 223.69966 323.48167 223.99966 322.90159 224.09966 278.16135 231.69966 272.59153 228.34966 272.47141 228.27966 272.5217 228.78966 273.57151 239.67966 278.58127 291.69966 340.70139 291.69966"></polygon>
            <path d="M351.37129,142.83967 C350.574802,133.931082 346.364591,125.675487 339.62129,119.79967 C333.131366,114.052178 324.624695,111.117094 315.97139,111.63967 C307.72139,112.18967 301.38155,115.57967 297.00118,121.74967 C294.748009,125.05205 293.083462,128.71952 292.08125,132.58967 C287.10125,150.50967 281.85125,176.75967 277.86153,198.46967 C275.62129,210.58967 273.78145,221.29962 272.59153,228.34967 C272.57153,228.49967 272.55153,228.63967 272.5217,228.78967 C272.06126,231.53967 271.71165,233.68967 271.4817,235.11967 C271.183464,236.923588 272.010381,238.727909 273.57154,239.67967 C273.5813,239.68967 273.60132,239.69967 273.61154,239.70967 C278.658885,242.72917 284.420118,244.34812 290.30148,244.39967 C297.4216,244.39967 305.96164,241.91967 314.95138,233.90967 C316.211643,232.765454 318.10961,232.6855 319.46164,233.71967 L320.44164,234.47967 L330.12132,242.00967 C330.877194,242.600406 331.80249,242.933355 332.76146,242.95967 C333.239086,242.981006 333.716674,242.916658 334.17162,242.76967 C334.212539,242.764414 334.252693,242.754344 334.29125,242.73967 C335.70828,242.278574 336.803055,241.142718 337.21166,239.70967 C337.75121,237.82967 338.3513,235.65967 339.01146,233.23967 C339.28146,232.22973 339.56127,231.16967 339.8513,230.06967 C341.1213,225.20967 342.53148,219.56967 343.91136,213.42967 C348.73165,191.96968 353.31124,164.39967 351.37129,142.83967 Z" id="Path" fill="#3F3D56"></path>
            <path d="M310.92461,245.33542 C310.682916,242.369302 311.767441,239.448472 313.886361,237.358866 C316.005282,235.269261 318.940936,234.22553 321.9034,234.50852 L336.77524,202.01533 L346.61679,217.76264 L330.98542,246.20449 C330.162068,251.260743 325.687052,254.902073 320.569001,254.68035 C315.45095,254.458627 311.307606,250.443934 310.92461,245.33542 Z" id="Path" fill="#FFB8B8"></path>
            <path d="M360.74141,170.28968 L352.56124,134.15968 C352.519401,126.781912 346.954901,120.606754 339.62129,119.79968 C339.11153,119.74968 338.59151,119.71973 338.06124,119.71973 C334.204005,119.729733 330.509094,121.273307 327.791027,124.010179 C325.07296,126.747052 323.554898,130.452518 323.571355,134.30973 L333.55149,192.19973 L333.5217,192.31973 L328.2317,212.28973 L325.30152,223.37973 C325.270976,223.48415 325.250858,223.591341 325.24146,223.69973 C325.054109,224.630011 325.177096,225.596066 325.59156,226.44973 C325.923971,227.166153 326.441846,227.780697 327.09156,228.22973 L332.76148,232.14973 L334.11158,233.08973 C334.862566,233.612897 335.756393,233.892212 336.67164,233.889746 C337.024974,233.889746 337.377136,233.849098 337.72144,233.76973 C337.76144,233.75973 337.79127,233.74973 337.8313,233.73973 C338.246934,233.631399 338.644522,233.462955 339.01148,233.23973 C339.692742,232.826812 340.251901,232.240101 340.6316,231.53978 L356.29127,202.62978 C361.640306,192.743781 363.221488,181.253 360.74141,170.28968 Z" id="Path" fill="#3F3D56"></path>
            <polygon id="Path" fill="#000000" opacity="0.2" points="325.56285 158.72075 334.56285 196.72075 321.56285 228.72075 330.56285 197.72075"></polygon>
            <path d="M337.42497,93.28481 C339.483215,92.5509984 341.375638,91.4165819 342.99289,89.94711 C343.70765,89.30893 344.47589,88.71611 345.18905,88.0783 C351.48705,82.44544 353.37928,72.75861 350.56933,64.79005 C347.75938,56.82149 340.77061,50.69629 332.78477,47.93584 C324.79893,45.17539 315.94752,45.55218 307.83895,47.92806 C299.10467,50.48726 290.35738,56.25006 288.28283,65.11192 C287.73062,67.47082 287.70962,70.08775 289.3159,72.07765 C289.798942,72.6787589 290.431366,73.1424833 291.1499,73.42243 C293.98033,74.50743 295.55744,72.2926 297.67,71.35188 C300.57369,70.05888 304.14739,71.45507 306.1686,73.90823 C308.18981,76.36139 308.93809,79.61977 309.24839,82.78316 C309.311237,84.7334581 309.617174,86.6682954 310.15911,88.54284 C310.732615,90.4460182 312.249844,91.9170805 314.16983,92.43152 C316.44827,92.85241 318.63941,91.28361 320.07283,89.46327 C321.50625,87.64293 322.52242,85.48079 324.21634,83.89996 C325.91026,82.31913 328.67296,81.48479 330.52964,82.87084 C331.151477,83.3954747 331.676144,84.0254405 332.07964,84.73192 C334.92549,89.10333 334.57906,88.9134 337.42491,93.28481 L337.42497,93.28481 Z" id="Path" fill="#2F2E41"></path>
            <path d="M219.8033,183.20196 L202.47618,190.99756 C200.965229,191.677378 200.291429,193.45332 200.97118,194.9643 L203.02264,199.52407 C202.52032,199.751923 202.296216,200.3426 202.52098,200.84631 L203.34157,202.67022 C203.569423,203.172546 204.160108,203.396651 204.66382,203.17188 L205.4844,204.99579 C204.98207,205.223639 204.757963,205.814328 204.98274,206.31804 L205.80332,208.14194 C206.031169,208.64427 206.621855,208.868379 207.12557,208.64361 L218.20346,233.26637 C218.883278,234.777321 220.65922,235.451121 222.1702,234.77137 L239.49733,226.97582 C241.008281,226.296002 241.682081,224.52006 241.00233,223.00908 L223.77005,184.70701 C223.090251,183.196034 221.314297,182.522208 219.8033,183.20196 L219.8033,183.20196 Z" id="Path" fill="#3F3D56"></path>
            <path d="M237.79122,220.74964 L235.35127,215.31964 L228.95137,201.09964 L223.33125,188.60964 C222.681442,187.16093 220.98118,186.512112 219.53145,187.15964 L209.99145,191.44964 L205.62133,193.41964 C204.178353,194.075129 203.535157,195.772544 204.18139,197.21969 L209.99145,210.13969 L212.22145,215.08969 L218.64137,229.36969 C219.300106,230.814908 221.001476,231.457936 222.45143,230.80969 L236.35133,224.54969 C237.795899,223.895694 238.439668,222.196708 237.79122,220.74964 Z" id="Path" fill="#6C63FF"></path>
        </g>
    </g>
</svg>