<?xml version="1.0" encoding="UTF-8"?>
<svg width="48px" height="48px" viewBox="0 0 48 48" version="1.1" xmlns="http://www.w3.org/2000/svg" xmlns:xlink="http://www.w3.org/1999/xlink">
    <title>circle_toggle_example_icon</title>
    <g id="Page-1" stroke="none" stroke-width="1" fill="none" fill-rule="evenodd">
        <g id="circle_toggle_example_icon" fill-rule="nonzero">
            <rect id="Rectangle" fill="#000000" opacity="0" x="0" y="0" width="48" height="48"></rect>
            <path d="M43.3428821,39.2842747 L35.7897596,32.1496098 C38.2267181,29.2083068 39.5490139,25.5761527 39.5441058,21.8369673 C39.5441058,12.538167 31.5872867,5 21.7720529,5 C11.9568191,5 4,12.538167 4,21.8369673 C4,31.1357676 11.9568191,38.6739347 21.7720529,38.6739347 C25.7189038,38.6785846 29.5527792,37.425862 32.6574353,35.1171253 L40.1883427,42.2728364 C40.6054674,42.6712678 41.1732753,42.8953798 41.7656124,42.8953798 C42.3579494,42.8953798 42.9257573,42.6712678 43.3428821,42.2728364 C43.7634414,41.8776589 44,41.3397265 44,40.7785556 C44,40.2173846 43.7634414,39.6794522 43.3428821,39.2842747 Z M8.44301322,21.8369673 C8.44301322,14.8628671 14.4106275,9.20924183 21.7720529,9.20924183 C29.1334782,9.20924183 35.1010925,14.8628671 35.1010925,21.8369673 C35.1010925,28.8110675 29.1334782,34.4646928 21.7720529,34.4646928 C14.4106275,34.4646928 8.44301322,28.8110675 8.44301322,21.8369673 Z" id="Shape" fill="#FFFFFF"></path>
        </g>
    </g>
</svg>