<?xml version="1.0" encoding="UTF-8"?>
<svg width="370px" height="337px" viewBox="0 0 370 337" version="1.1" xmlns="http://www.w3.org/2000/svg" xmlns:xlink="http://www.w3.org/1999/xlink">
    <g id="Page-1" stroke="none" stroke-width="1" fill="none" fill-rule="evenodd">
        <g id="left" transform="translate(-0.000050, -0.000050)" fill-rule="nonzero">
            <path d="M9.653,37.9303 L198.20282,37.9303 C203.531539,37.9362959 207.849824,42.2545809 207.85582,47.5833 L207.85582,327.17272 C207.84983,332.501441 203.531541,336.81973 198.20282,336.82572 L9.653,336.82572 C4.3242786,336.81973 0.00599042605,332.501441 0,327.17272 L0,47.58325 C0.00602347346,42.2545504 4.32430037,37.9362959 9.653,37.9303 Z" id="Path" fill="#F2F2F2"></path>
            <path d="M11.99311,44.95063 L195.86271,44.95063 C198.607803,44.9536941 200.832376,47.1782673 200.83544,49.92336 L200.83544,324.83262 C200.832376,327.577713 198.607803,329.802286 195.86271,329.80535 L11.99311,329.80535 C9.24801727,329.802286 7.02344415,327.577713 7.02038,324.83262 L7.02038,49.92336 C7.02344415,47.1782673 9.24801727,44.9536941 11.99311,44.95063 Z" id="Path" fill="#FFFFFF"></path>
            <path d="M139.77043,147.62998 C139.77043,165.30309 123.42882,162.62998 103.27043,162.62998 C83.11204,162.62998 66.77043,165.30309 66.77043,147.62998 C66.77043,129.95687 74.75289,98.62998 103.27043,98.62998 C132.77043,98.62998 139.77043,129.95686 139.77043,147.62998 Z" id="Path" fill="#2F2E41"></path>
            <path d="M182.70851,297.22811 C184.188768,294.414506 184.346752,291.089751 183.139951,288.148464 C181.93315,285.207178 179.485529,282.951495 176.45569,281.98837 L134.63953,193.52931 L115.5116,206.94231 L162.6302,289.67702 C161.320935,294.990851 164.192995,300.444134 169.315473,302.370582 C174.43795,304.297031 180.191734,302.087734 182.70851,297.22802 L182.70851,297.22811 Z" id="Path" fill="#A0616A"></path>
            <path d="M146.32161,201.29994 L143.93147,197.55994 L142.71175,195.63994 L133.32161,180.91994 C130.311216,174.192152 122.425267,171.167873 115.688224,174.157499 C108.951182,177.147125 105.902591,185.023707 108.87142,191.76994 L111.02181,199.43994 L115.41145,215.11994 C115.677854,216.085057 116.245456,216.939902 117.03157,217.55994 C117.32926,217.809201 117.658825,218.017701 118.01157,218.17994 C119.254098,218.767109 120.688909,218.792601 121.95151,218.24994 C121.97151,218.23994 122.00181,218.22994 122.02183,218.21994 L133.38169,213.13994 L133.40169,213.12994 L142.07161,209.24994 L144.23177,208.28994 C144.851197,208.014564 145.403835,207.608642 145.85188,207.09994 C146.326491,206.575425 146.675184,205.949545 146.87142,205.26994 C147.28191,203.930226 147.080744,202.477672 146.32161,201.29994 Z" id="Path" fill="#CCCCCC"></path>
            <path d="M86.39144,326.71998 C85.5276514,325.286525 83.982298,324.403543 82.308781,324.387235 C80.635264,324.370928 79.0729978,325.223629 78.18144,326.63998 C77.9919643,326.925668 77.8407751,327.234972 77.73174,327.55998 L77.16142,329.12998 L87.8416,329.12998 L86.39144,326.71998 Z" id="Path" fill="#2F2E41"></path>
            <circle id="Oval" fill="#A0616A" cx="103.04065" cy="137.05445" r="24.56103"></circle>
            <path d="M146.09163,209.69996 C146.03157,208.81996 145.95149,207.94996 145.85188,207.09996 C145.496986,203.869137 144.854297,200.676458 143.93147,197.55996 C143.74153,196.87996 143.53157,196.21996 143.30159,195.56996 C140.377456,186.952867 135.296274,179.227692 128.54183,173.12996 C125.867544,170.733605 122.402697,169.408915 118.81183,169.409959 L84.21173,169.409959 C79.9111375,169.409959 75.8300061,171.309016 73.0594117,174.598226 C70.2888172,177.887436 69.1112798,182.231834 69.84161,186.46996 C69.83136,186.47996 69.83136,186.47996 69.84161,186.48996 C70.0857922,187.887845 70.5339331,189.242295 71.17169,190.50996 L72.57159,193.29996 L81.95147,212.05996 L93.6214,235.39996 L94.30157,236.75996 L137.79181,248.71996 L137.97149,248.30996 C138.13165,247.94996 138.30157,247.57996 138.45149,247.21996 C138.69173,246.67996 138.92171,246.13996 139.15169,245.60996 C143.025002,236.799341 145.378274,227.3964 146.11169,217.79996 L146.11169,217.78996 C146.27535,215.095561 146.26865,212.393514 146.09163,209.69996 L146.09163,209.69996 Z" id="Path" fill="#3F3D56"></path>
            <path d="M139.15169,245.60994 C139.003885,245.100912 138.770578,244.620731 138.46175,244.18994 C137.341881,242.692031 136.003573,241.370651 134.49153,240.26994 L134.48177,240.25994 C129.21177,236.25994 118.75177,231.59994 98.54183,231.47994 L98.51155,231.47994 C96.620062,231.481542 94.9038431,232.587865 94.12142,234.30994 L93.62142,235.39994 L90.40169,242.47989 C90.127067,243.085645 89.6955031,243.606974 89.15169,243.98989 C84.04183,247.60989 59.29183,267.90994 73.82161,312.47989 C75.24153,316.82989 76.70149,321.57989 78.18147,326.63989 C78.42171,327.45989 78.6617833,328.28989 78.90169,329.12989 L122.46175,329.12989 L121.53157,322.12989 C121.469565,321.672826 121.49341,321.208205 121.60188,320.75989 L139.13167,248.41989 L139.21175,248.10989 C139.412164,247.285817 139.391446,246.423438 139.15169,245.60994 Z" id="Path" fill="#2F2E41"></path>
            <path d="M152.82162,164.62995 L171.82162,164.62995 C173.478461,164.62995 174.821587,165.973109 174.82162,167.62995 L174.82162,172.62995 C175.373205,172.631636 175.819934,173.078365 175.82162,173.62995 L175.82162,175.62995 C175.819929,176.181533 175.373203,176.628259 174.82162,176.62995 L174.82162,178.62995 C175.373203,178.631641 175.819929,179.078367 175.82162,179.62995 L175.82162,181.62995 C175.819929,182.181533 175.373203,182.628259 174.82162,182.62995 L174.82162,209.62995 C174.821581,211.286788 173.478458,212.62995 171.82162,212.62995 L152.82162,212.62995 C151.164782,212.62995 149.82162,211.286788 149.82162,209.62995 L149.82162,167.62995 C149.82162,165.973114 151.164784,164.62995 152.82162,164.62995 Z" id="Path" fill="#3F3D56"></path>
            <path d="M151.8216,209.62996 L151.8216,167.62996 C151.821639,165.973122 153.164762,164.62996 154.8216,164.62996 L152.8216,164.62996 C151.164762,164.62996 149.8216,165.973122 149.8216,167.62996 L149.8216,209.62996 C149.8216,211.286798 151.164762,212.62996 152.8216,212.62996 L154.8216,212.62996 C153.164762,212.62996 151.821639,211.286798 151.8216,209.62996 L151.8216,209.62996 Z" id="Path" fill="#6C63FF"></path>
            <circle id="Oval" fill="#FFFFFF" cx="161.82161" cy="178.62996" r="4"></circle>
            <path d="M156.74645,192.64326 C156.421606,193.091234 156.132593,193.564126 155.8821,194.05754 L106.64287,199.97254 L99.40206,190.34315 L83.44134,199.37139 L94.60311,217.66406 C96.4553413,220.699624 100.088975,222.148183 103.52159,221.21944 L157.98486,206.48362 C161.153764,209.484843 165.849139,210.212079 169.777468,208.310099 C173.705796,206.408118 176.047355,202.273807 175.658378,197.926625 C175.269401,193.579444 172.231057,189.926515 168.027464,188.752162 C163.823872,187.577809 159.332194,189.127083 156.74645,192.64322 L156.74645,192.64326 Z" id="Path" fill="#A0616A"></path>
            <path d="M106.23177,193.80995 L92.43147,175.92995 C89.2369159,170.214136 82.1721607,167.933207 76.2383207,170.701827 C70.3044808,173.470447 67.5137294,180.349771 69.84163,186.46995 C69.83138,186.47995 69.83138,186.47995 69.84163,186.48995 C70.0473602,187.034795 70.2946722,187.563018 70.58138,188.06995 L72.57161,193.29995 L78.62142,209.24995 C79.0842282,210.474878 80.0599876,211.435872 81.29183,211.87995 C81.5062383,211.958473 81.7269143,212.018688 81.95149,212.05995 C82.9993626,212.273918 84.0892424,212.103531 85.02181,211.57995 L89.40169,209.12995 L104.86169,200.48995 C105.999537,199.84445 106.804657,198.740599 107.07169,197.45995 C107.334339,196.179049 107.027865,194.847218 106.23177,193.80995 L106.23177,193.80995 Z" id="Path" fill="#3F3D56"></path>
            <path d="M74.77043,141.62992 L74.77043,141.62992 L84.48479,141.62992 L88.77043,126.8607 L89.62736,141.62992 L94.27043,141.62992 L96.77043,133.01454 L97.27043,141.62992 L131.77043,141.62992 L131.77043,141.62992 C131.77043,123.95684 120.12984,109.62998 105.77043,109.62998 L100.77037,109.62998 C86.41101,109.62998 74.77043,123.95686 74.77043,141.62992 Z" id="Path" fill="#2F2E41"></path>
            <path d="M359.64784,122.85576 L156.05837,122.85576 C150.729649,122.84977 146.41136,118.531481 146.40537,113.20276 L146.40537,9.653 C146.41136,4.3242786 150.729649,0.00599042605 156.05837,0 L359.64784,0 C364.976564,0.00598492691 369.294855,4.32427632 369.30084,9.653 L369.30084,113.20281 C369.294828,118.531514 364.976544,122.849775 359.64784,122.85576 Z" id="Path" fill="#CCCCCC"></path>
            <path d="M357.30774,115.83544 L158.39848,115.83544 C155.653387,115.832376 153.428814,113.607803 153.42575,110.86271 L153.42575,11.9931 C153.428814,9.24800727 155.653387,7.02343415 158.39848,7.02037 L357.30774,7.02037 C360.052833,7.02343415 362.277406,9.24800727 362.28047,11.9931 L362.28047,110.86271 C362.2774,113.6078 360.05283,115.83237 357.30774,115.83544 Z" id="Path" fill="#FFFFFF"></path>
            <path d="M168.26479,141.88979 C167.771033,141.888458 167.282399,141.789635 166.82693,141.59899 C165.435334,141.039707 164.529421,139.683926 164.545036,138.18423 L164.545036,119.15257 L193.22524,118.42757 L170.8548,140.79772 C170.172147,141.493314 169.239395,141.886606 168.26479,141.88979 Z" id="Path" fill="#CCCCCC"></path>
            <path d="M333.08933,56.994175 L232.46464,56.994175 C230.790931,56.9966165 229.243312,56.105108 228.40575,54.6560396 C227.568188,53.2069712 227.568188,51.4209388 228.40575,49.9718704 C229.243312,48.522802 230.790931,47.6312935 232.46464,47.633735 L333.08933,47.633735 C335.674141,47.633735 337.769545,49.7291436 337.769545,52.313955 C337.769545,54.8987664 335.674141,56.994175 333.08933,56.994175 Z" id="Path" fill="#CCCCCC"></path>
            <path d="M300.3278,37.10325 L232.46464,37.10325 C229.879826,37.10325 227.78442,35.0078441 227.78442,32.42303 C227.78442,29.8382159 229.879826,27.74281 232.46464,27.74281 L300.3278,27.74281 C302.912614,27.74281 305.00802,29.8382159 305.00802,32.42303 C305.00802,35.0078441 302.912614,37.10325 300.3278,37.10325 L300.3278,37.10325 Z" id="Path" fill="#CCCCCC"></path>
            <circle id="Oval" fill="#6C63FF" cx="190.81042" cy="42.3685" r="14.62568"></circle>
            <circle id="Oval" fill="#E6E6E6" cx="302.07973" cy="90.43278" r="4.68022"></circle>
            <circle id="Oval" fill="#E6E6E6" cx="318.46049" cy="90.43278" r="4.68022"></circle>
            <circle id="Oval" fill="#E6E6E6" cx="334.84125" cy="90.43278" r="4.68022"></circle>
        </g>
    </g>
</svg>